<?xml version="1.0" encoding="utf-8"?>
<!-- Generator: Adobe Illustrator 16.0.4, SVG Export Plug-In . SVG Version: 6.00 Build 0)  -->
<!DOCTYPE svg PUBLIC "-//W3C//DTD SVG 1.1//EN" "http://www.w3.org/Graphics/SVG/1.1/DTD/svg11.dtd">
<svg version="1.1" id="Guides" xmlns="http://www.w3.org/2000/svg" xmlns:xlink="http://www.w3.org/1999/xlink" x="0px" y="0px"
	 width="720px" height="540px" viewBox="0 0 720 540" enable-background="new 0 0 720 540" xml:space="preserve">
<g>
	<path d="M403.823,297.301c0,7.31-5.928,13.236-13.238,13.236h-67.292c-7.311,0-13.238-5.927-13.238-13.236l0,0
		c0-7.312,5.927-13.239,13.238-13.239h67.292C397.896,284.062,403.823,289.987,403.823,297.301L403.823,297.301z"/>
	<g>
		<circle cx="327.445" cy="441.881" r="12.484"/>
	</g>
	<g>
		
			<ellipse transform="matrix(0.7071 -0.7071 0.7071 0.7071 -242.9648 395.2014)" cx="355.568" cy="490.885" rx="14.484" ry="14.373"/>
		<path fill="none" stroke="#000000" stroke-width="8" stroke-miterlimit="10" d="M349.075,436.434
			c0,23.78,30.499,43.023,68.194,43.023"/>
	</g>
	<g>
		<ellipse cx="354.12" cy="337.103" rx="14.732" ry="32.672"/>
	</g>
	<g>
		<ellipse transform="matrix(0.9997 0.0252 -0.0252 0.9997 7.9438 -9.3283)" cx="374.133" cy="310.556" rx="32.673" ry="14.733"/>
		<ellipse transform="matrix(0.5008 0.8656 -0.8656 0.5008 474.0741 -158.119)" cx="374.115" cy="331.93" rx="32.673" ry="14.733"/>
		
			<ellipse transform="matrix(-0.4243 0.9055 -0.9055 -0.4243 798.6307 171.3236)" cx="344.854" cy="339.535" rx="32.673" ry="14.733"/>
		
			<ellipse transform="matrix(0.9055 -0.4243 0.4243 0.9055 -110.9767 186.2864)" cx="362.78" cy="342.319" rx="14.732" ry="32.673"/>
		
			<ellipse transform="matrix(-0.4034 0.915 -0.915 -0.4034 765.6007 166.5786)" cx="328.496" cy="332.875" rx="32.671" ry="16.366"/>
		<ellipse transform="matrix(0.9997 0.0252 -0.0252 0.9997 7.902 -8.3918)" cx="336.954" cy="309.375" rx="32.673" ry="14.734"/>
	</g>
	<g>
		
			<ellipse transform="matrix(-0.6077 0.7941 -0.7941 -0.6077 857.655 222.2909)" cx="373.928" cy="322.963" rx="14.623" ry="45.18"/>
		<circle cx="504.516" cy="204.981" r="13.216"/>
		<path fill="none" stroke="#000000" stroke-width="8" stroke-miterlimit="10" d="M396.665,339.736
			c15.494,18.027,39.69,22.595,54.1,10.212"/>
		<path fill="none" stroke="#000000" stroke-width="8" stroke-miterlimit="10" d="M453.085,286.917
			c14.736,21.085,13.391,49.499-3.006,63.527"/>
		<path fill="none" stroke="#000000" stroke-width="8" stroke-miterlimit="10" d="M453.162,286.904
			c-20.178-29.342-15.587-67.468,10.261-85.241"/>
		<path fill="none" stroke="#000000" stroke-width="8" stroke-miterlimit="10" d="M462.953,201.978
			c14.486-9.963,32.862-8.348,41.087,3.611"/>
	</g>
	<g>
		<path d="M555.115,256.135c-2.391,6.738-9.615,10.197-16.138,7.726c-6.521-2.471-9.869-9.935-7.477-16.674
			c2.389-6.737,9.614-10.196,16.137-7.725C554.158,241.933,557.506,249.397,555.115,256.135z"/>
		<path fill="none" stroke="#000000" stroke-width="8" stroke-miterlimit="10" d="M385.554,348.76
			c3.254,29.187,24.259,50.356,46.958,47.33"/>
		<path fill="none" stroke="#000000" stroke-width="8" stroke-miterlimit="10" d="M477.366,332.428
			c0.438,31.835-20.078,60.331-45.869,63.708"/>
		<path fill="none" stroke="#000000" stroke-width="8" stroke-miterlimit="10" d="M477.375,332.842
			c-0.234-44.08,30.106-80.389,67.835-81.18"/>
	</g>
	<g>
		<path d="M156.505,238.993c6.521-2.471,13.746,0.987,16.137,7.726c2.391,6.738-0.957,14.201-7.478,16.672
			c-6.521,2.47-13.746-0.988-16.137-7.726C146.636,248.927,149.984,241.462,156.505,238.993z"/>
		<path fill="none" stroke="#000000" stroke-width="8" stroke-miterlimit="10" d="M318.589,348.291
			c-3.256,29.187-24.258,50.355-46.96,47.329"/>
		<path fill="none" stroke="#000000" stroke-width="8" stroke-miterlimit="10" d="M226.776,331.957
			c-0.438,31.837,20.077,60.329,45.87,63.71"/>
		<path fill="none" stroke="#000000" stroke-width="8" stroke-miterlimit="10" d="M226.768,332.373
			c0.233-44.079-30.108-80.389-67.836-81.181"/>
	</g>
	<g>
		<path d="M368.433,295.22c4.907,6.416-7.178,23.906-26.994,39.07c-19.815,15.164-39.856,22.258-44.765,15.847
			c-4.908-6.414,7.178-23.906,26.994-39.07C343.483,295.901,363.525,288.808,368.433,295.22z"/>
		<circle cx="201.963" cy="204.774" r="13.216"/>
		<path fill="none" stroke="#000000" stroke-width="8" stroke-miterlimit="10" d="M309.817,339.528
			c-15.493,18.029-39.69,22.598-54.1,10.217"/>
		<path fill="none" stroke="#000000" stroke-width="8" stroke-miterlimit="10" d="M253.396,286.711
			c-14.735,21.084-13.39,49.499,3.007,63.527"/>
		<path fill="none" stroke="#000000" stroke-width="8" stroke-miterlimit="10" d="M253.319,286.697
			c20.176-29.341,15.585-67.468-10.262-85.241"/>
		<path fill="none" stroke="#000000" stroke-width="8" stroke-miterlimit="10" d="M243.53,201.771
			c-14.487-9.963-32.864-8.348-41.089,3.611"/>
	</g>
	<path stroke="#000000" d="M421.74,135.688"/>
	<path stroke="#000000" d="M331.49,279.325"/>
	<path d="M403.393,266.237c0,17.242-15.456,31.216-34.521,31.216h-26.608c-19.064,0-34.519-13.978-34.519-31.216v-24.066
		c0-17.242,15.455-31.218,34.519-31.218h26.608c19.064,0,34.521,13.978,34.521,31.218V266.237z"/>
	<line fill="none" stroke="#231F20" stroke-miterlimit="10" x1="443.786" y1="324.304" x2="443.795" y2="324.293"/>
	<ellipse cx="356.637" cy="334.917" rx="0" ry="21.292"/>
	<circle fill="#FFFFFF" stroke="#000000" cx="386.19" cy="297.299" r="12.058"/>
	<ellipse fill="#FFFFFF" cx="325.586" cy="297.3" rx="6.431" ry="6.695"/>
	<g>
		<path fill="none" stroke="#000000" stroke-width="7" d="M372.343,120.244c0-20.732,9.563-37.508,21.382-37.508"/>
		<path fill="none" stroke="#000000" stroke-width="7" d="M400.262,163.334c-15.555,0-28.143-19.274-28.143-43.092"/>
		<path fill="none" stroke="#000000" stroke-width="7" d="M426.99,239.127c0-41.872-12.908-75.756-28.859-75.756"/>
		<path fill="none" stroke="#000000" stroke-width="7" d="M385.444,314.886c22.963,0,41.546-33.883,41.546-75.756"/>
		<circle cx="394.16" cy="82.736" r="12.134"/>
	</g>
	<g>
		<path fill="none" stroke="#000000" stroke-width="7" d="M334.956,120.244c0-20.732-9.563-37.508-21.381-37.508"/>
		<path fill="none" stroke="#000000" stroke-width="7" d="M307.035,163.334c15.556,0,28.145-19.274,28.145-43.092"/>
		<path fill="none" stroke="#000000" stroke-width="7" d="M280.31,239.127c0-41.872,12.907-75.756,28.858-75.756"/>
		<path fill="none" stroke="#000000" stroke-width="7" d="M321.854,314.886c-22.962,0-41.544-33.883-41.544-75.756"/>
		<circle cx="313.138" cy="82.736" r="12.134"/>
	</g>
	<g>
		<path stroke="#FFFFFF" stroke-width="8" d="M323.209,347.646c0-21.017,14.206-38.022,31.764-38.022"/>
		<path stroke="#FFFFFF" stroke-width="8" d="M354.12,309.624c17.559,0,31.767,17.006,31.767,38.022"/>
	</g>
	<path fill="none" stroke="#000000" stroke-width="7" stroke-miterlimit="10" d="M333.737,362.627
		c-32.778,32.724-49.107,69.419-36.507,82.039"/>
	<path fill="none" stroke="#000000" stroke-width="7" stroke-miterlimit="10" d="M328.877,445.194
		c-8.787,8.601-22.953,8.353-31.671-0.555"/>
	<g>
		<path d="M374.692,428.927c6.897,0,12.487,5.589,12.487,12.484s-5.59,12.484-12.487,12.484c-6.893,0-12.484-5.589-12.484-12.484
			S367.8,428.927,374.692,428.927z"/>
	</g>
	<path fill="none" stroke="#000000" stroke-width="7" stroke-miterlimit="10" d="M368.404,362.159
		c32.779,32.723,49.107,69.414,36.507,82.038"/>
	<path fill="none" stroke="#000000" stroke-width="8" stroke-miterlimit="10" d="M349.075,438.089c0-21.722,5.782-39.3,12.926-39.3"
		/>
	<path fill="none" stroke="#000000" stroke-width="7" stroke-miterlimit="10" d="M373.264,444.724
		c8.786,8.602,22.952,8.355,31.671-0.554"/>
	<path fill="none" stroke="#000000" stroke-width="8" stroke-miterlimit="10" d="M124.282,259.576
		c0,129.021,104.403,233.425,233.427,233.425"/>
	<path fill="none" stroke="#000000" stroke-width="8" stroke-miterlimit="10" d="M124.282,259.576
		c0-129.47,104.764-234.234,234.233-234.234"/>
	<path fill="none" stroke="#000000" stroke-width="8" stroke-miterlimit="10" d="M592.833,258.443
		c0,122.161-78.739,221.014-176.048,221.014"/>
	<path fill="none" stroke="#000000" stroke-width="8" stroke-miterlimit="10" d="M592.833,259.576
		c0-129.47-104.763-234.234-234.231-234.234"/>
	<path fill="none" stroke="#000000" stroke-width="8" stroke-miterlimit="10" d="M363.966,367.252
		c0,20.92-5.283,37.849-11.812,37.849"/>
	<ellipse transform="matrix(-0.6045 -0.7966 0.7966 -0.6045 281.5424 869.5037)" cx="356.63" cy="364.857" rx="13.031" ry="8.004"/>
	<rect id="_x3C_Slice_x3E_" x="80.048" fill="none" width="564.261" height="531.167"/>
</g>
</svg>
